<svg width="235" height="235" viewBox="0 0 235 235" fill="none" xmlns="http://www.w3.org/2000/svg">
<g filter="url(#filter0_d_140_330)">
<circle cx="127" cy="108" r="104" stroke="black" stroke-width="8"/>
<circle cx="127" cy="108" r="102.5" fill="#6F5E53" stroke="#FF97B8" stroke-width="5"/>
</g>
<path d="M156.076 57.0713L156.232 57.3124L156.519 57.2988C157.101 57.2712 157.68 57.2569 158.256 57.2569C177.344 57.2569 192.83 72.0133 192.83 90.0977C192.83 105.227 181.902 118.284 166.773 121.925L166.39 122.017V122.411V169.78C166.39 171.994 164.496 173.83 162.104 173.83H91.2263C88.8343 173.83 86.9401 171.994 86.9401 169.78V122.409V122.015L86.557 121.922C71.4253 118.283 60.5 105.229 60.5 90.0977C60.5 72.0133 75.9857 57.2569 95.0737 57.2569C95.6503 57.2569 96.23 57.2706 96.8108 57.2987L97.0981 57.3126L97.2546 57.0713C103.524 47.3989 114.511 41.5 126.665 41.5C138.818 41.5 149.805 47.3989 156.076 57.0713ZM95.5124 165.23V165.73H96.0124H157.318H157.319H157.819V165.23V156.655V156.155H157.319H144.149H126.666H109.183H96.0124H95.5124V156.655V165.23ZM157.318 149.572H157.818V149.072V118.649C157.818 116.63 159.401 114.893 161.561 114.632C174.482 113.073 184.258 102.543 184.258 90.0977C184.258 76.4312 172.569 65.3561 158.256 65.3561C157.001 65.3561 155.725 65.4457 154.461 65.6224C152.6 65.8798 150.803 64.9706 149.988 63.3995L149.988 63.3993C145.562 54.8798 136.619 49.5992 126.665 49.5992C116.711 49.5992 107.767 54.8792 103.345 63.3988L103.345 63.399C102.529 64.9709 100.729 65.8809 98.8718 65.6224C97.6053 65.4451 96.3288 65.3561 95.0744 65.3561C80.7612 65.3561 69.073 76.4312 69.073 90.0977C69.073 102.551 78.8577 113.082 91.7883 114.632C94.0527 114.904 95.6652 116.79 95.5271 118.9C95.5236 118.947 95.5195 118.994 95.5149 119.04L95.5124 119.065V119.09V149.072V149.572H96.0124H105.195H105.695V149.072V120.695C105.695 118.901 107.232 117.403 109.183 117.403C111.134 117.403 112.672 118.901 112.672 120.695V149.072V149.572H113.172H122.676H123.176V149.072V120.695C123.176 118.901 124.713 117.403 126.664 117.403C128.615 117.403 130.153 118.901 130.153 120.695V149.072V149.572H130.653H140.159H140.659V149.072V120.695C140.659 118.901 142.196 117.403 144.147 117.403C146.098 117.403 147.636 118.901 147.636 120.695V149.072V149.572H148.136H157.318Z" fill="#FFF1E3" stroke="#6F5E53"/>
<defs>
<filter id="filter0_d_140_330" x="0" y="0" width="235" height="235" filterUnits="userSpaceOnUse" color-interpolation-filters="sRGB">
<feFlood flood-opacity="0" result="BackgroundImageFix"/>
<feColorMatrix in="SourceAlpha" type="matrix" values="0 0 0 0 0 0 0 0 0 0 0 0 0 0 0 0 0 0 127 0" result="hardAlpha"/>
<feOffset dx="-15" dy="15"/>
<feGaussianBlur stdDeviation="2"/>
<feComposite in2="hardAlpha" operator="out"/>
<feColorMatrix type="matrix" values="0 0 0 0 0 0 0 0 0 0 0 0 0 0 0 0 0 0 0.25 0"/>
<feBlend mode="normal" in2="BackgroundImageFix" result="effect1_dropShadow_140_330"/>
<feBlend mode="normal" in="SourceGraphic" in2="effect1_dropShadow_140_330" result="shape"/>
</filter>
</defs>
</svg>
