<svg width="216" height="216" viewBox="0 0 216 216" fill="none" xmlns="http://www.w3.org/2000/svg">
<circle cx="108" cy="108" r="104" stroke="black" stroke-width="8"/>
<circle cx="108" cy="108" r="102.5" fill="#6F5E53" stroke="#FF97B8" stroke-width="5"/>
<path d="M137.076 57.0713L137.232 57.3124L137.519 57.2988C138.101 57.2712 138.68 57.2569 139.256 57.2569C158.344 57.2569 173.83 72.0133 173.83 90.0977C173.83 105.227 162.902 118.284 147.773 121.925L147.39 122.017V122.411V169.78C147.39 171.994 145.496 173.83 143.104 173.83H72.2263C69.8343 173.83 67.9401 171.994 67.9401 169.78V122.409V122.015L67.557 121.922C52.4253 118.283 41.5 105.229 41.5 90.0977C41.5 72.0133 56.9857 57.2569 76.0737 57.2569C76.6503 57.2569 77.23 57.2706 77.8108 57.2987L78.0981 57.3126L78.2546 57.0713C84.5242 47.3989 95.5109 41.5 107.665 41.5C119.818 41.5 130.805 47.3989 137.076 57.0713ZM76.5124 165.23V165.73H77.0124H138.318H138.319H138.819V165.23V156.655V156.155H138.319H125.149H107.666H90.1833H77.0124H76.5124V156.655V165.23ZM138.318 149.572H138.818V149.072V118.649C138.818 116.63 140.401 114.893 142.561 114.632C155.482 113.073 165.258 102.543 165.258 90.0977C165.258 76.4312 153.569 65.3561 139.256 65.3561C138.001 65.3561 136.725 65.4457 135.461 65.6224C133.6 65.8798 131.803 64.9706 130.988 63.3995L130.988 63.3993C126.562 54.8798 117.619 49.5992 107.665 49.5992C97.7105 49.5992 88.7673 54.8792 84.3446 63.3988L84.3445 63.399C83.529 64.9709 81.7288 65.8809 79.8718 65.6224C78.6053 65.4451 77.3288 65.3561 76.0744 65.3561C61.7612 65.3561 50.073 76.4312 50.073 90.0977C50.073 102.551 59.8577 113.081 72.7883 114.632C75.0527 114.904 76.6651 116.79 76.5271 118.9C76.5236 118.947 76.5195 118.994 76.5149 119.04L76.5124 119.065V119.09V149.072V149.572H77.0124H86.1949H86.6949V149.072V120.695C86.6949 118.901 88.2324 117.403 90.1833 117.403C92.1343 117.403 93.6718 118.901 93.6718 120.695V149.072V149.572H94.1718H103.676H104.176V149.072V120.695C104.176 118.901 105.713 117.403 107.664 117.403C109.615 117.403 111.153 118.901 111.153 120.695V149.072V149.572H111.653H121.159H121.659V149.072V120.695C121.659 118.901 123.196 117.403 125.147 117.403C127.098 117.403 128.636 118.901 128.636 120.695V149.072V149.572H129.136H138.318Z" fill="#FFF1E3" stroke="#6F5E53"/>
</svg>
